# xmcd
#
# Track frame offsets:
#	150
#	11057
#	22882
#	34247
#	45587
#	58584
#	68894
#	80147
#	92734
#	103265
#	115001
#	125137
#	137101
#	150799
#	162460
#	175286
#	187532
#	198654
#	209266
#	221861
#	232788
#	242401
#	255691
#	268047
#	285342
#	298772
#	309319
#	324573
#	338234
#
# Disc length: 4672 seconds
#
# Revision: 1
# Processed by: cddbd v1.5.1PL0 Copyright (c) Steve Scherf et al.
# Submitted via: audiograbber 1.83.01
#
DISCID=a1123e1d
DTITLE=Classic Country - Classic Country Giants
DYEAR=1900
DGENRE=Country
TTITLE0=The Everly Brothers - Bye Bye Love
TTITLE1=Tennesee Ernie Ford - Sixteen Tons
TTITLE2=Marty Robbins - A White Sport Coat (And A Pink Carnation)
TTITLE3=Sonny James - Young Love
TTITLE4=The Browns - The Three Bells
TTITLE5=Jimmie Rodgers - Honeycomb
TTITLE6=Floyd Cramer - Last Date
TTITLE7=Bill Anderson - Still
TTITLE8=Ferlin Huskey - Wings Of A Dove
TTITLE9=George Jones - She Thinks I Still Care
TTITLE10=George Hamilton IV - Abilene
TTITLE11=Brenda Lee - I'm sorry
TTITLE12=Lefty Frizell - Saginaw, Michigan
TTITLE13=Jim Reeves - Welcome To My World
TTITLE14=Patsy Cline - I Fall To Pieces
TTITLE15=Tammy Winette - Stand By Your Man
TTITLE16=Conway Twitty - Hello Darlin'
TTITLE17=Jerry Reed - When You Are Hot, You Are Hot
TTITLE18=Donna Fargp - Funny Face
TTITLE19=Johnny Cash - Daddy Sang Bass
TTITLE20=Tom T. Hall - I Love
TTITLE21=Lynn Anderson - Rose Garden
TTITLE22=Merle Haggard - If We Can Make It Through December
TTITLE23=Ray Price - For The Good Times
TTITLE24=George Jones and Tammy Winette - We're Gonna Hold On
TTITLE25=The Statler Brothers - Flowers On The Wall
TTITLE26=Jeanne Pruette - Satin Sheets
TTITLE27=Conway Twitty - You've Never Been This Far Before
TTITLE28=Charlie Rich - The Most Beautiful Girl
EXTD=Compiled.
EXTT0=
EXTT1=
EXTT2=
EXTT3=
EXTT4=
EXTT5=
EXTT6=
EXTT7=
EXTT8=
EXTT9=
EXTT10=
EXTT11=
EXTT12=
EXTT13=
EXTT14=
EXTT15=
EXTT16=
EXTT17=
EXTT18=
EXTT19=
EXTT20=
EXTT21=
EXTT22=
EXTT23=
EXTT24=
EXTT25=
EXTT26=
EXTT27=
EXTT28=
PLAYORDER=
